<?xml version="1.0" encoding="UTF-8"?>
<svg id="Livello_2" xmlns="http://www.w3.org/2000/svg" viewBox="0 0 124.13 109.08">
  <defs>
    <style>
      .cls-1 {
        fill: #fff;
      }

      .cls-2 {
        fill: #e5007d;
      }

      .cls-3 {
        fill: #fab700;
      }

      .cls-4 {
        fill: #fedd00;
      }
    </style>
  </defs>
  <g id="Livello_2-2" data-name="Livello_2">
    <g>
      <path class="cls-1" d="M124.13,61.74v47.34h-36c-1.01-1.15-1.62-2.48-1.84-3.99-.24-1.62-.43-3.24-.71-4.85-1.04-5.78-2.91-11.3-5.17-16.71-.23-.55-.37-1.19-.36-1.78.11-4.62,1.93-8.43,5.53-11.37,2.57-2.1,5.5-3.55,8.64-4.51,2.98-.91,6.03-1.59,9.03-2.43,2.67-.75,5.23-1.77,7.37-3.62,1.18-1.02,2.07-2.23,2.36-3.81.51-2.74-.65-4.93-2.23-6.98.19,1.25.5,2.47.68,3.72.5,3.48-1.8,6.79-5.32,7.59.87-2.27,1.45-4.5-.18-6.63-.07.15-.08.29-.05.43.48,2.08-.05,3.95-1.15,5.71-.67,1.07-1.53,1.8-2.84,1.94-.64.07-1.28.27-1.91.42-3.52.85-7.08,1.6-10.57,2.57-5.1,1.42-9.06,4.36-11.36,9.26-.06.13-.1.27-.22.57-.3-.68-.47-1.04-.63-1.4-2.26-5.34-5.56-9.82-10.46-13.07-2.78-1.84-5.46-3.86-8.13-5.87-2.09-1.58-4.06-3.29-5.65-5.42-2.91-3.91-1.23-7.96,1.38-10.08,1.96-1.59,4.22-2.53,6.6-3.26,5.23-1.59,10.65-2.18,16.02-3.07,3.97-.66,7.93-1.38,11.86-2.25,2.62-.58,5.13-1.58,7.37-3.14,1.83-1.28,3.11-2.95,3.62-5.13.49-2.08.53-4.19-.07-6.25-1.43-4.87-4.6-8.41-8.73-11.18-.06-.04-.16-.02-.33-.03.78.89,1.52,1.69,2.2,2.54,1.69,2.07,3.12,4.28,3.87,6.88,1.21,4.2,0,9.24-5.13,11.36-1.9.78-3.9,1.43-5.91,1.8-3.6.65-7.25,1.06-10.88,1.53-1.32.17-2.65.24-4.16.37.3-.39.5-.63.68-.89.56-.8,1.18-1.58,1.65-2.43.31-.57.72-.86,1.31-1.03,1.43-.41,2.72-.01,3.98.64.16.08.31.19.47.27.16.08.32.14.64.29-1.43-1.91-3.2-2.74-5.41-2.73,0-.77.04-1.42-.01-2.07-.05-.59-.2-1.17-.31-1.76-.08.01-.15.02-.23.03-.07.43-.11.86-.21,1.28-1.26,5.26-4.81,8.24-9.83,9.57-3.84,1.02-7.63,2.09-10.96,4.36-.11.08-.26.1-.48.19,0-.28,0-.49,0-.69.04-1.38.18-2.76.12-4.13-.15-2.95-.83-5.75-2.69-8.14-1.54-1.99-3.55-3.23-6.02-3.73.25.27.54.48.83.67,3.06,2.06,5.02,4.88,5.83,8.49.67,3,.51,5.99-.16,8.96-.12.55-.39,1.09-.7,1.56-1.9,2.76-2.38,5.8-1.84,9.05.48,2.87,2.04,5.15,4.23,6.91,2.4,1.93,4.98,3.64,7.48,5.44,2.45,1.76,4.9,3.51,7.34,5.28.27.2.49.47.74.7-.18.1-.26.09-.32.05-4.73-3.21-9.98-5.3-15.37-7.1-4.85-1.62-9.72-3.2-14.51-4.97-4.56-1.69-8.71-4.11-12.22-7.59-2.43-2.41-3.05-5.29-2.55-8.5.25-1.58.81-3.1,1.23-4.66-1.54,1.76-2.31,3.89-2.78,6.17-1.37-3.81-1.07-7.56.2-11.29-1.99,2.02-2.93,4.49-3.06,7.25-.16,3.17.76,6.1,2.24,8.87,2.11,3.95,5.33,6.86,9,9.31,4.5,2.99,9.43,5.13,14.42,7.14.37.15.73.33,1.15.53-1.16.73-2.15,1.39-3.18,1.99-.36.21-.81.33-1.23.38-1.43.18-2.82,0-4.15-.61-.31-.14-.63-.26-.95-.39-.05.08-.1.15-.14.23.64.51,1.23,1.11,1.95,1.49.74.39,1.61.56,2.49.84-1.12,1.6-1.99,3.25-2.19,5.2.09-.02.14-.02.16-.04.33-.48.64-.96.98-1.43,1.81-2.54,4.07-4.53,6.98-5.74,1.46-.61,2.81-.73,4.37-.05,4.03,1.75,8.14,3.28,12,5.43,3.83,2.13,6.74,5.11,8.72,9.03,1.4,2.77,2.43,5.67,3.21,8.66,1.35,5.15,2,10.4,2.38,15.7.09,1.2.11,2.4.17,3.59.08,1.66-.52,3.12-1.27,4.55H0c0-23.2,0-46.39,0-69.59.07.16.19.32.21.48.54,4.59,2.67,8.4,5.81,11.68,3.46,3.62,7.64,5.45,12.73,4.81,1.11-.14,2.19-.37,3.17-.92-7.79.08-13.51-6.37-15.22-10.1,1.43,1.33,2.93,2.84,4.54,4.2,1.65,1.39,3.57,2.36,5.61,3.07,1.99.69,4.03,1.13,6.39.99-1.7-1.56-2.39-3.41-2.94-5.29-1.09-3.79-3.41-6.6-6.68-8.69-1.71-1.1-3.44-2.17-5.17-3.24-2.12-1.31-3.52-3.14-3.94-5.61-.21-1.23-.21-2.5-.32-3.89-.33.35-.64.64-.9.97-1.47,1.82-2.34,3.91-2.83,6.17C.31,34.81.15,35.51,0,36.21c0-12.07,0-24.14,0-36.21h124.13v59.12c-.08-.31-.16-.62-.26-.93-.39-1.31-.79-2.61-1.25-4.14-.36.51-.54.78-.74,1.04-1.3,1.75-2.9,3.05-5.13,3.39-2.51.39-4.71,1.43-6.61,3.1-1.04.91-2.06,1.84-3.05,2.8-1.38,1.34-3.05,1.92-4.93,1.96-.47.01-.95,0-1.42-.03-.47-.03-.93-.09-1.39-.14,6.73,3.08,13.3,3.68,19.51-1.31-.2.39-.43.69-.71.95-1.23,1.16-2.61,2.08-4.17,2.73-3.76,1.59-7.63,1.6-11.54.74-1.61-.35-3.18-.86-4.77-1.3,3.12,2.24,6.47,3.99,10.24,4.84,2.26.51,4.54.67,6.8.09,4.89-1.25,7.65-4.59,8.93-9.33.17-.62.32-1.25.47-1.87ZM38.8,52.09c-.85-1.6-1.74-3.1-2.47-4.66-2.02-4.34-2.95-8.87-2.11-13.66.25-1.45.64-2.86,1.49-4.11.08.29.08.57.08.85,0,1.96-.08,3.92.03,5.88.22,3.81,1.11,7.46,2.86,10.87.77,1.51,1.69,2.93,3.09,4.29.04-2.92,1.43-5.15,2.62-7.47,2.55-4.96,2.41-9.98.12-15-1.87-4.09-4.63-7.54-7.69-10.77-1.09-1.15-2.25-2.24-3.53-3.5.11,2.57-.32,4.81-1.18,6.93-1.06,2.62-2.25,5.19-3.47,7.74-1.05,2.2-1.79,4.48-1.73,6.91.16,6.24,3.11,10.9,8.3,14.23,1.09.7,2.28,1.21,3.6,1.49ZM65.49.26c.39.2.6.31.81.41,3.64,1.81,6,4.61,6.7,8.7.52,3.03,1.47,5.91,3.15,8.51,1.35,2.08,3.01,3.84,5.27,4.92,3.21,1.54,6.31,1.28,9.29-.72-.42-3.48-1.73-6.55-3.73-9.34-2-2.79-4.61-4.92-7.42-6.81,6.7,2.83,11.75,7.1,12.79,15.04,1.42-2,2.21-3.96,2.27-6.16.08-3.28-1.52-5.76-3.92-7.79-2.5-2.11-5.38-3.57-8.48-4.57-4.49-1.46-9.16-1.86-13.83-2.17-.89-.06-1.78,0-2.9,0ZM98.68,83.9c-2.57,1.61-5.37,2.53-8.4,2.62-3.06.09-5.77-.9-8.28-3.05.12.43.13.65.23.82.79,1.29,1.47,2.69,2.44,3.84,2.03,2.42,4.69,3.61,7.88,3.46,3.81-.18,7.11-1.67,10.01-4.06,3.74-3.09,6.15-7.11,7.96-11.54.1-.24.15-.51.27-.9-.53.3-.9.53-1.29.73-3.48,1.82-6.84,1.97-10.07-.61-1.4-1.12-2.99-1.93-4.73-2.4-7.54-2.05-12.12,3.53-12.57,8.7,5.01,4.02,10.57,4.38,16.53,2.4ZM63.99,72.65c.06-.1.13-.21.19-.31-.79-.88-1.5-1.86-2.4-2.62-5.38-4.61-13.96-4.27-19.29.86-2.63,2.53-5.64,3.59-9.21,3.23-.7-.07-1.41-.16-2.23-.26.15.22.22.35.31.45,2.36,2.65,4.97,5,8.05,6.77,6.22,3.57,12.47,3.64,18.71.02,2.53-1.47,4.74-3.33,6.67-5.71-6.88-2.67-13.45-1.39-20,.95,1.14-1.26,2.52-2.11,4.03-2.75,4.31-1.8,8.76-1.81,13.27-1,.63.11,1.27.23,1.9.35ZM16.03,33.67c.25-4.39.65-5.41,3.23-8.81.59-.78,1.13-1.6,1.65-2.43,1.61-2.57,1.9-5.47,1.89-8.39,0-2.93.96-5.47,2.61-7.81.2-.28.38-.57.62-.92-.38,0-.63-.03-.88,0-2.56.37-5.04,1.05-7.39,2.14-5.66,2.61-9.7,6.69-11.48,12.78-.62,2.12-.82,4.28-.21,6.44,1.2,4.23,4.21,6.73,8.08,8.38.03.01.1-.08.17-.14-1.91-3.46-3.33-7.07-3.27-11.13.06-4.03,2.48-9.5,4.62-10.31-5.96,6.97-3.07,15.65.36,20.19ZM58.3,11.98c-.07-.72-.08-1.44-.22-2.15-.72-3.62-2.97-5.98-6.3-7.36-2.63-1.09-5.4-1.35-8.21-1.4-6.1-.12-11.39,1.91-15.94,5.92-.23.2-.42.44-.73.76,2.53-.05,4.27,1.22,5.88,2.74.84.8,1.63,1.67,2.55,2.38,4.1,3.19,8.5,4.56,13.61,2.43,2.43-1.01,4.9-2.13,7.74-1.54-1.04-2.23-2.55-3.98-4.59-5.32-3.61-2.38-7.65-3.02-11.87-2.83-1.59.07-3.18.27-4.99.43,6.44-2.12,17.09-2.39,23.07,5.93ZM66.75,38.6c.16.27.33.53.49.8.87,1.44,1.45,2.98,1.77,4.65.43,2.24.07,4.4-.52,6.56-.5,1.83-.75,3.69-.52,5.6.39,3.25,2.09,5.66,4.76,7.46,1.79,1.21,3.7,2.29,4.59,4.5.81-1.64,1.34-4.07,1.39-6.11.08-3.75-.83-7.25-2.51-10.58-.19-.38-.37-.77-.56-1.15.08-.04.16-.07.25-.11,1.82,2.34,3.16,4.93,3.95,7.79,1.01,3.64.79,7.22-.86,10.75,3.19-.92,5.86-4.26,6.09-7.39.23-3.11-.85-5.84-2.36-8.46-1.43-2.47-3.22-4.65-5.33-6.58-3.25-2.96-6.84-5.45-10.62-7.73ZM76.69,36.86c3.12-.39,5.96-.14,8.73.69,2.81.85,5.24,2.31,6.95,4.79-.93-.4-1.79-.91-2.68-1.36-3.49-1.77-7.14-2.86-11.1-2.54-.84.07-1.67.28-2.52.42.05.36.07.54.1.71.04.18.08.35.14.52,1.47,4.82,4.87,7.41,9.7,8.27,3.08.55,6.17.35,9.2-.3,2.57-.55,5.09-1.32,7.74-2.02-.21-.27-.27-.37-.35-.43-3.02-2.2-5.52-4.89-7.77-7.87-2.9-3.84-6.8-5.7-11.69-4.99-2.62.38-4.76,1.64-6.45,4.09ZM52.88,27.22c3.36-.76,6.42-1.95,9.12-3.93,2.87-2.1,4.81-4.81,5.23-8.45.02-.18.08-.35.13-.53.04-.13.1-.26.14-.4.1,3.67-1.25,6.74-3.82,9.29-2.73,2.7-6.11,4.24-9.71,5.4-.32.1-.63.22-1.19.41,3.18.88,6.1,1.09,9.04.26,4.88-1.39,7.63-4.89,9.02-9.52,1.5-4.95.17-9.46-2.73-13.58-.53-.76-1.18-1.43-1.85-2.23-.12.39-.19.59-.24.8-.56,2.65-1.86,4.86-3.94,6.61-.5.42-.95.9-1.43,1.35-2.27,2.12-3.48,4.77-3.9,7.83-.2,1.5-.72,2.9-1.64,4.1-.66.86-1.41,1.65-2.24,2.6ZM100.62,37.45c3.05-.55,5.61-1.96,7.45-4.46,2.57-3.49,3.23-7.38,2.18-11.57-.67-2.69-1.73-5.21-3.46-7.51-.08.22-.14.35-.17.49-.68,2.53-2.02,4.58-4.04,6.3-1.25,1.07-2.31,2.42-3.22,3.8-1.26,1.91-1.7,4.05-1.19,6.35.43,1.91,1.04,3.82.45,6,2.53-1.47,4.35-3.35,5.78-5.64,1.41-2.26,2.13-4.79,2.72-7.36.02,5.57-1.58,10.37-6.51,13.6ZM114.56,54.18c3.55-4.47,4.13-9.55,3.13-14.96,2.05,5.17,2.29,10.2-1.1,15,5.63-3.43,7.07-10.11,4.71-15.58-1.49-3.45-3.96-6.13-7.04-8.26-.13-.09-.29-.13-.5-.21,0,.24-.02.39,0,.53.36,2.42-.08,4.69-1.28,6.82-.23.41-.45.83-.63,1.26-1.74,3.98-2.02,7.83.88,11.47.9,1.13,1.59,2.42,1.83,3.94ZM30.63,55.34c-3.83,1.43-5.81,4.42-5.48,8.53.08.95.35,1.89.53,2.84-1.22-2.22-1.7-4.55-.97-7.01.73-2.45,2.56-3.97,4.66-5.26-.63,0-1.21.05-1.78.16-2.77.56-4.98,1.85-5.85,4.73-1.35,4.45,1.31,10.05,5.65,11.92.14-1.58,1.23-2.5,2.37-3.36,1.33-.99,2.51-2.1,3.24-3.61.72-1.48.75-2.93-.18-4.34-.44-.67-.91-1.32-1.26-2.04-.38-.79-.62-1.65-.95-2.56ZM60.7,40.44c-4.33,4.71-3.48,9.12-1.17,11.81.67-.58,1.3-1.22,2.02-1.73.73-.53,1.56-.92,2.33-1.4,1.24-.76,1.83-1.92,1.97-3.34.16-1.59-.11-3.11-.72-4.58-.58-1.38-.96-2.78-.35-4.29-.28,0-.46-.02-.64,0-.43.06-.86.13-1.29.21-3.57.69-6.26,2.55-7.92,5.85-1.86,3.69-.51,7.39,3.2,9.52-1.18-2.17-1.85-4.3-1.27-6.66.57-2.31,1.94-4.05,3.83-5.39ZM93,62.73c.94-.39,1.75-.77,2.6-1.07.72-.25,1.46-.43,2.2-.59,1.55-.33,2.67-1.25,3.51-2.54.79-1.21,1.24-2.55,1.37-3.97.14-1.58.38-3.08,1.71-4.49-.98-.05-1.72-.1-2.47-.12-4.15-.12-7.42,1.65-10.06,4.74-1.16,1.35-1.69,2.94-1.52,4.74.11,1.23.67,2.48,1.42,3.08.05-4.95,3.51-9.61,7.55-10.02-4.11,2.3-7.05,5.2-6.31,10.25Z"/>
      <path class="cls-2" d="M74.83,109.08c.74-1.43,1.35-2.89,1.27-4.55-.06-1.2-.08-2.4-.17-3.59-.38-5.29-1.02-10.55-2.38-15.7-.79-2.99-1.82-5.89-3.21-8.66-1.98-3.92-4.88-6.9-8.72-9.03-3.85-2.14-7.97-3.68-12-5.43-1.56-.68-2.91-.55-4.37.05-2.91,1.21-5.17,3.2-6.98,5.74-.34.47-.65.96-.98,1.43-.02.02-.07.02-.16.04.2-1.95,1.06-3.59,2.19-5.2-.88-.29-1.74-.45-2.49-.84-.71-.37-1.3-.98-1.95-1.49.05-.08.1-.15.14-.23.32.13.64.25.95.39,1.32.61,2.72.79,4.15.61.42-.05.87-.17,1.23-.38,1.03-.6,2.03-1.26,3.18-1.99-.43-.2-.78-.38-1.15-.53-4.99-2.02-9.92-4.15-14.42-7.14-3.68-2.44-6.89-5.35-9-9.31-1.48-2.76-2.4-5.7-2.24-8.87.14-2.76,1.08-5.23,3.06-7.25-1.27,3.74-1.57,7.48-.2,11.29.47-2.29,1.25-4.41,2.78-6.17-.42,1.55-.98,3.08-1.23,4.66-.5,3.2.12,6.08,2.55,8.5,3.5,3.48,7.65,5.9,12.22,7.59,4.79,1.78,9.66,3.35,14.51,4.97,5.39,1.8,10.64,3.89,15.37,7.1.06.04.13.05.32-.05-.25-.24-.47-.51-.74-.7-2.44-1.77-4.89-3.52-7.34-5.28-2.5-1.8-5.08-3.51-7.48-5.44-2.19-1.77-3.76-4.05-4.23-6.91-.54-3.24-.06-6.28,1.84-9.05.32-.46.58-1.01.7-1.56.66-2.97.83-5.96.16-8.96-.81-3.61-2.77-6.43-5.83-8.49-.29-.2-.58-.4-.83-.67,2.47.5,4.48,1.74,6.02,3.73,1.86,2.39,2.54,5.2,2.69,8.14.07,1.37-.07,2.76-.12,4.13,0,.2,0,.41,0,.69.22-.09.37-.11.48-.19,3.33-2.28,7.12-3.34,10.96-4.36,5.02-1.33,8.57-4.32,9.83-9.57.1-.42.14-.85.21-1.28.08-.01.15-.02.23-.03.11.59.26,1.17.31,1.76.05.64.01,1.29.01,2.07,2.21-.01,3.98.82,5.41,2.73-.32-.14-.49-.21-.64-.29-.16-.08-.31-.18-.47-.27-1.25-.66-2.54-1.06-3.98-.64-.58.17-.99.46-1.31,1.03-.47.85-1.09,1.63-1.65,2.43-.18.26-.38.5-.68.89,1.51-.13,2.84-.2,4.16-.37,3.63-.47,7.28-.88,10.88-1.53,2.02-.37,4.02-1.01,5.91-1.8,5.13-2.12,6.34-7.16,5.13-11.36-.75-2.6-2.18-4.82-3.87-6.88-.69-.84-1.42-1.64-2.2-2.54.17.01.27-.01.33.03,4.13,2.77,7.3,6.31,8.73,11.18.61,2.06.57,4.17.07,6.25-.52,2.18-1.8,3.85-3.62,5.13-2.24,1.57-4.75,2.56-7.37,3.14-3.93.87-7.89,1.59-11.86,2.25-5.37.9-10.79,1.48-16.02,3.07-2.37.72-4.64,1.67-6.6,3.26-2.61,2.12-4.29,6.17-1.38,10.08,1.58,2.13,3.55,3.84,5.65,5.42,2.67,2.01,5.34,4.03,8.13,5.87,4.91,3.25,8.21,7.73,10.46,13.07.15.36.32.72.63,1.4.12-.3.16-.44.22-.57,2.31-4.9,6.26-7.84,11.36-9.26,3.49-.97,7.04-1.72,10.57-2.57.63-.15,1.27-.36,1.91-.42,1.31-.14,2.18-.87,2.84-1.94,1.1-1.76,1.63-3.63,1.15-5.71-.03-.14-.02-.28.05-.43,1.63,2.13,1.05,4.36.18,6.63,3.51-.8,5.82-4.12,5.32-7.59-.18-1.24-.49-2.47-.68-3.72,1.58,2.05,2.74,4.25,2.23,6.98-.29,1.58-1.18,2.79-2.36,3.81-2.14,1.85-4.7,2.86-7.37,3.62-3,.85-6.05,1.52-9.03,2.43-3.14.96-6.07,2.41-8.64,4.51-3.59,2.94-5.42,6.74-5.53,11.37-.01.59.13,1.23.36,1.78,2.25,5.41,4.13,10.93,5.17,16.71.29,1.61.48,3.23.71,4.85.22,1.51.83,2.85,1.84,3.99h-13.31Z"/>
      <path class="cls-3" d="M0,36.21c.15-.7.31-1.4.46-2.1.49-2.27,1.36-4.36,2.83-6.17.26-.33.57-.61.9-.97.11,1.39.11,2.66.32,3.89.42,2.47,1.83,4.3,3.94,5.61,1.73,1.07,3.45,2.14,5.17,3.24,3.27,2.09,5.59,4.9,6.68,8.69.54,1.88,1.23,3.73,2.94,5.29-2.36.14-4.39-.3-6.39-.99-2.04-.71-3.96-1.68-5.61-3.07-1.62-1.36-3.11-2.87-4.54-4.2,1.71,3.73,7.43,10.18,15.22,10.1-.98.55-2.07.78-3.17.92-5.09.64-9.27-1.19-12.73-4.81-3.14-3.28-5.27-7.09-5.81-11.68-.02-.17-.14-.32-.21-.48,0-1.09,0-2.18,0-3.27Z"/>
      <path class="cls-3" d="M124.13,61.74c-.16.62-.31,1.25-.47,1.87-1.28,4.73-4.04,8.07-8.93,9.33-2.26.58-4.54.42-6.8-.09-3.77-.86-7.12-2.61-10.24-4.84,1.59.44,3.16.94,4.77,1.3,3.91.86,7.78.85,11.54-.74,1.56-.66,2.94-1.58,4.17-2.73.28-.26.51-.56.71-.95-6.22,4.99-12.78,4.38-19.51,1.31.46.05.93.11,1.39.14.47.03.94.04,1.42.03,1.88-.04,3.55-.62,4.93-1.96.99-.96,2.01-1.89,3.05-2.8,1.9-1.67,4.11-2.71,6.61-3.1,2.23-.34,3.83-1.64,5.13-3.39.19-.26.37-.53.74-1.04.46,1.52.86,2.83,1.25,4.14.09.31.17.62.26.93v2.62Z"/>
      <path class="cls-4" d="M38.47,51.21c-1.33-.22-2.54-.68-3.66-1.33-5.33-3.09-8.49-7.62-8.92-13.84-.17-2.43.47-4.74,1.42-6.98,1.11-2.6,2.18-5.22,3.13-7.88.77-2.16,1.1-4.42.88-6.98,1.33,1.21,2.54,2.24,3.68,3.34,3.21,3.09,6.12,6.42,8.16,10.42,2.51,4.92,2.88,9.92.55,14.99-1.09,2.37-2.37,4.65-2.29,7.58-1.46-1.3-2.44-2.67-3.28-4.15-1.9-3.33-2.95-6.94-3.34-10.73-.2-1.95-.2-3.91-.29-5.87-.01-.28-.02-.56-.12-.85-.79,1.29-1.11,2.72-1.3,4.18-.63,4.82.5,9.31,2.71,13.55.8,1.53,1.75,2.98,2.67,4.55Z"/>
      <path class="cls-4" d="M65.49.26c1.12,0,2.01-.05,2.9,0,4.67.32,9.34.72,13.83,2.17,3.1,1.01,5.98,2.46,8.48,4.57,2.4,2.03,4.01,4.52,3.92,7.79-.06,2.2-.85,4.16-2.27,6.16-1.04-7.94-6.09-12.22-12.79-15.04,2.81,1.89,5.41,4.03,7.42,6.81,2.01,2.79,3.31,5.85,3.73,9.34-2.98,2-6.08,2.26-9.29.72-2.26-1.08-3.92-2.84-5.27-4.92-1.69-2.6-2.63-5.48-3.15-8.51-.7-4.08-3.06-6.88-6.7-8.7-.21-.11-.42-.21-.81-.41Z"/>
      <path class="cls-4" d="M98.68,83.9c-5.96,1.98-11.52,1.62-16.53-2.4.44-5.17,5.03-10.75,12.57-8.7,1.74.47,3.33,1.29,4.73,2.4,3.23,2.58,6.59,2.43,10.07.61.38-.2.76-.43,1.29-.73-.12.4-.17.66-.27.9-1.81,4.43-4.22,8.45-7.96,11.54-2.9,2.39-6.2,3.89-10.01,4.06-3.19.15-5.85-1.05-7.88-3.46-.97-1.15-1.65-2.55-2.44-3.84-.1-.17-.11-.39-.23-.82,2.5,2.15,5.22,3.14,8.28,3.05,3.03-.09,5.83-1.01,8.4-2.62Z"/>
      <path class="cls-3" d="M63.99,72.65c-.63-.12-1.27-.24-1.9-.35-4.51-.81-8.96-.8-13.27,1-1.51.63-2.89,1.49-4.03,2.75,6.55-2.35,13.12-3.62,20-.95-1.93,2.37-4.14,4.24-6.67,5.71-6.23,3.62-12.48,3.55-18.71-.02-3.09-1.77-5.7-4.12-8.05-6.77-.09-.1-.16-.23-.31-.45.82.1,1.53.19,2.23.26,3.57.36,6.58-.7,9.21-3.23,5.33-5.12,13.91-5.46,19.29-.86.89.76,1.6,1.74,2.4,2.62-.06.1-.13.21-.19.31Z"/>
      <path class="cls-4" d="M16.03,33.67c-3.43-4.54-6.32-13.22-.36-20.19-2.13.8-4.55,6.28-4.62,10.31-.06,4.06,1.36,7.66,3.27,11.13-.07.06-.14.15-.17.14-3.88-1.65-6.88-4.16-8.08-8.38-.62-2.16-.42-4.32.21-6.44,1.79-6.09,5.83-10.16,11.48-12.78,2.36-1.09,4.83-1.77,7.39-2.14.25-.04.5,0,.88,0-.24.35-.42.64-.62.92-1.64,2.35-2.61,4.89-2.61,7.81,0,2.92-.29,5.82-1.89,8.39-.52.83-1.06,1.65-1.65,2.43-2.59,3.4-2.98,4.43-3.23,8.81Z"/>
      <path class="cls-3" d="M58.3,11.98c-5.98-8.32-16.63-8.06-23.07-5.93,1.8-.16,3.39-.36,4.99-.43,4.22-.19,8.26.46,11.87,2.83,2.03,1.34,3.54,3.09,4.59,5.32-2.84-.59-5.31.53-7.74,1.54-5.1,2.12-9.51.75-13.61-2.43-.91-.71-1.7-1.58-2.55-2.38-1.61-1.53-3.35-2.79-5.88-2.74.3-.32.5-.56.73-.76,4.56-4.01,9.84-6.04,15.94-5.92,2.81.05,5.59.31,8.21,1.4,3.34,1.38,5.58,3.74,6.3,7.36.14.7.15,1.43.22,2.15Z"/>
      <path class="cls-4" d="M66.75,38.6c3.78,2.28,7.37,4.77,10.62,7.73,2.11,1.92,3.9,4.1,5.33,6.58,1.51,2.62,2.59,5.34,2.36,8.46-.23,3.13-2.9,6.46-6.09,7.39,1.65-3.52,1.87-7.11.86-10.75-.79-2.86-2.13-5.45-3.95-7.79-.08.04-.16.07-.25.11.19.38.37.77.56,1.15,1.68,3.33,2.6,6.83,2.51,10.58-.05,2.04-.58,4.47-1.39,6.11-.89-2.21-2.8-3.29-4.59-4.5-2.67-1.8-4.36-4.21-4.76-7.46-.23-1.91.03-3.77.52-5.6.58-2.16.95-4.31.52-6.56-.32-1.66-.9-3.21-1.77-4.65-.16-.27-.33-.54-.49-.8Z"/>
      <path class="cls-3" d="M76.69,36.86c1.69-2.45,3.83-3.71,6.45-4.09,4.89-.71,8.79,1.15,11.69,4.99,2.25,2.99,4.75,5.67,7.77,7.87.08.06.13.16.35.43-2.65.7-5.18,1.47-7.74,2.02-3.03.65-6.12.85-9.2.3-4.82-.87-8.22-3.45-9.7-8.27-.05-.17-.1-.35-.14-.52-.04-.18-.05-.36-.1-.71.85-.15,1.68-.36,2.52-.42,3.96-.32,7.61.78,11.1,2.54.89.45,1.75.96,2.68,1.36-1.7-2.48-4.14-3.94-6.95-4.79-2.77-.84-5.62-1.08-8.73-.69Z"/>
      <path class="cls-3" d="M52.88,27.22c.82-.95,1.58-1.74,2.24-2.6.92-1.21,1.43-2.6,1.64-4.1.42-3.05,1.63-5.7,3.9-7.83.48-.45.93-.92,1.43-1.35,2.08-1.75,3.38-3.96,3.94-6.61.04-.21.12-.41.24-.8.67.8,1.32,1.47,1.85,2.23,2.9,4.12,4.22,8.63,2.73,13.58-1.4,4.62-4.15,8.13-9.02,9.52-2.94.84-5.86.62-9.04-.26.56-.19.88-.31,1.19-.41,3.6-1.15,6.98-2.7,9.71-5.4,2.58-2.55,3.92-5.61,3.82-9.29-.05.13-.1.26-.14.4-.05.17-.11.35-.13.53-.41,3.64-2.36,6.34-5.23,8.45-2.7,1.98-5.76,3.17-9.12,3.93Z"/>
      <path class="cls-3" d="M100.62,37.45c4.93-3.24,6.53-8.03,6.51-13.6-.59,2.57-1.3,5.09-2.72,7.36-1.43,2.29-3.25,4.16-5.78,5.64.59-2.17-.03-4.08-.45-6-.52-2.3-.07-4.45,1.19-6.35.91-1.38,1.97-2.74,3.22-3.8,2.02-1.72,3.36-3.77,4.04-6.3.04-.13.09-.26.17-.49,1.73,2.3,2.79,4.82,3.46,7.51,1.05,4.19.39,8.08-2.18,11.57-1.84,2.5-4.41,3.91-7.45,4.46Z"/>
      <path class="cls-4" d="M114.56,54.18c-.24-1.52-.93-2.81-1.83-3.94-2.9-3.64-2.62-7.49-.88-11.47.19-.43.4-.85.63-1.26,1.2-2.13,1.64-4.39,1.28-6.82-.02-.14,0-.28,0-.53.21.09.37.13.5.21,3.08,2.13,5.55,4.81,7.04,8.26,2.36,5.47.92,12.15-4.71,15.58,3.39-4.8,3.16-9.83,1.1-15,1,5.41.42,10.49-3.13,14.96Z"/>
      <path class="cls-4" d="M30.63,55.34c.33.91.57,1.76.95,2.56.34.72.82,1.37,1.26,2.04.93,1.42.9,2.86.18,4.34-.74,1.51-1.92,2.62-3.24,3.61-1.15.86-2.23,1.78-2.37,3.36-4.34-1.87-6.99-7.47-5.65-11.92.87-2.88,3.08-4.17,5.85-4.73.57-.11,1.15-.16,1.78-.16-2.11,1.28-3.93,2.81-4.66,5.26-.73,2.46-.25,4.79.97,7.01-.18-.95-.46-1.88-.53-2.84-.33-4.11,1.64-7.1,5.48-8.53Z"/>
      <path class="cls-3" d="M60.7,40.44c-1.89,1.35-3.25,3.08-3.83,5.39-.58,2.36.09,4.5,1.27,6.66-3.71-2.13-5.06-5.83-3.2-9.52,1.66-3.3,4.35-5.16,7.92-5.85.43-.08.86-.15,1.29-.21.18-.02.36,0,.64,0-.61,1.51-.23,2.91.35,4.29.61,1.46.87,2.99.72,4.58-.14,1.41-.72,2.58-1.97,3.34-.77.47-1.6.87-2.33,1.4-.72.51-1.35,1.15-2.02,1.73-2.31-2.69-3.16-7.1,1.17-11.81Z"/>
      <path class="cls-4" d="M93,62.73c-.74-5.05,2.2-7.95,6.31-10.25-4.04.41-7.49,5.07-7.55,10.02-.74-.59-1.3-1.85-1.42-3.08-.17-1.8.36-3.38,1.52-4.74,2.64-3.08,5.91-4.86,10.06-4.74.74.02,1.49.07,2.47.12-1.33,1.41-1.57,2.92-1.71,4.49-.13,1.42-.58,2.76-1.37,3.97-.85,1.3-1.96,2.21-3.51,2.54-.74.16-1.49.34-2.2.59-.84.29-1.66.68-2.6,1.07Z"/>
    </g>
  </g>
</svg>